<svg xmlns="http://www.w3.org/2000/svg" xmlns:xlink="http://www.w3.org/1999/xlink" width="37" height="48" viewBox="0 0 37 48"><defs><path id="rajta" d="M859.94 6288h-32.88a2.07 2.07 0 0 1-2.06-2.09v-43.82c0-1.16.92-2.1 2.06-2.1h32.88c1.14 0 2.06.94 2.06 2.1v43.82c0 1.15-.92 2.09-2.06 2.09zm-12.33-4.18h4.11v-4.17h-4.1zm0-6.26h4.11v-4.17h-4.1zm0-6.26h4.11v-4.17h-4.1zm0-6.26h4.11v-4.17h-4.1zm-6.17 18.78h4.11v-4.17h-4.1zm0-6.26h4.11v-4.17h-4.1zm0-6.26h4.11v-4.17h-4.1zm0-6.26h4.11v-4.17h-4.1zm-12.33 18.78h10.28v-4.17H829.1zm6.17-16.7v4.18h4.1v-4.17zm4.1-2.08v-4.17h-4.1v4.17zm-4.1 8.35v4.17h4.1v-4.17zm-6.17 4.17h4.11v-4.17h-4.1zm0-6.26h4.11v-4.17h-4.1zm0-6.26h4.11v-4.17h-4.1zm28.78-20.87H829.1v12.52h28.78zm0 16.7h-4.11v4.17h4.1zm0 6.26h-4.11v4.17h4.1zm0 6.26h-4.11v10.43h4.1z"/></defs><g><g transform="translate(-825 -6240)"><use fill="#93b3c4" xlink:href="#rajta"/></g></g></svg>