<svg xmlns="http://www.w3.org/2000/svg" xmlns:xlink="http://www.w3.org/1999/xlink" width="36" height="48" viewBox="0 0 36 48"><defs><path id="zfpfa" d="M1090.02 6272.52c-4.3.93-13.16 11.38-16.03 16.5-4.06-4.88-8.85-8.6-12.2-9.76l7.9-4.65 3.82 7.2s6.22-14.64 16.03-19.52c-.24 3.49-1.2 6.5.48 10.23zm-6.22-22.63c0-.82-.67-1.49-1.49-1.49h-5.94v-2.97h7.33a3.05 3.05 0 0 1 3.07 2.97v14.15c-1.7.68-2.97 2.09-2.97 2.09zm-4.46 0c.82 0 1.49.66 1.49 1.48v2.97h-20.89v-2.97c0-.82.67-1.48 1.49-1.48h4.45s.02-1.9.02-4.3a4.5 4.5 0 0 1 4.44-4.6c2.5 0 4.6 2.2 4.6 4.6 0 2.6-.05 4.3-.05 4.3zm-9-4.46a1.49 1.49 0 1 0 0 2.98 1.49 1.49 0 0 0 0-2.98zm-13.37 4.46v34.24c0 .82.67 1.48 1.49 1.48h8.81a8.2 8.2 0 0 1 3.23 2.97h-13.53a2.97 2.97 0 0 1-2.97-2.97v-37.2a2.97 2.97 0 0 1 2.97-2.98h7.52v2.97h-6.03c-.82 0-1.49.67-1.49 1.49zm25.34 35.72c.82 0 1.49-.66 1.49-1.48v-4.92c.99-1 1.98-1.92 2.97-2.73v9.13a3.05 3.05 0 0 1-3.07 2.97h-7.56c.65-.97 1.35-1.96 2.1-2.97z"/></defs><g><g transform="translate(-1054 -6241)"><use fill="#93b3c4" xlink:href="#zfpfa"/></g></g></svg>