<svg xmlns="http://www.w3.org/2000/svg" xmlns:xlink="http://www.w3.org/1999/xlink" width="52" height="48" viewBox="0 0 52 48"><defs><path id="7dzaa" d="M580 6240h1.97l.04 45.97 49.99.1v1.93h-52zm20 0h6a2 2 0 0 1 2 2v6.85s-8.8 1.06-9 11.15c-.21 10.6 9 11.04 9 11.04V6282h-10v-40c0-1.1.9-2 2-2zm-12 12h6a2 2 0 0 1 2 2v28h-10v-28c0-1.1.9-2 2-2zm27 17a2 2 0 0 1 2 2s-1.17.55 0 2c.72.9 3 1.1 3 2.83v6.17h-10v-10.92s1.79.42 3-.08c1.29-.54 2-2 2-2zm11 12s1.87.07 3-1c1.97-1.87 1-4 1-4a2 2 0 0 1 2 2v4h-10v-4c0-1.1 2.9 3 4 3zm2.6-2.43l-.72.71a2 2 0 0 1-2.84 0l-5.67-5.67a1.98 1.98 0 0 1-.28-2.41l-3.1-3.1a10.03 10.03 0 1 1 1.49-1.35l3.03 3.03a1.98 1.98 0 0 1 2.4.28l5.68 5.67a2 2 0 0 1 0 2.84zM617.51 6260a7.52 7.52 0 0 0-7.52-7.52c-7.98 0-7.52 8.86-7.52 7.52a7.52 7.52 0 0 0 15.04 0z"/></defs><g><g transform="translate(-580 -6240)"><use fill="#93b3c4" xlink:href="#7dzaa"/></g></g></svg>