<svg xmlns="http://www.w3.org/2000/svg" xmlns:xlink="http://www.w3.org/1999/xlink" width="52" height="44" viewBox="0 0 52 44"><defs><path id="1wkpa" d="M1330 6255h6a2 2 0 0 1 2 2v28h-10v-28c0-1.1.9-2 2-2zm-14 10h6a2 2 0 0 1 2 2v18h-10v-18c0-1.1.9-2 2-2zm-14-4h6a2 2 0 0 1 2 2v22h-10v-22c0-1.1.9-2 2-2zm-14 14h6a2 2 0 0 1 2 2v8h-10v-8c0-1.1.9-2 2-2zm4-19c1.06 0 2.03.33 2.84.88l5.54-3.96a4.98 4.98 0 0 1 4.62-6.92 5 5 0 0 1 4.99 5.34l4.75 2.03a5 5 0 0 1 8.15-.52l5.87-4.2a5 5 0 1 1 1.4 1.46l-6.35 4.54a5 5 0 1 1-9.75.6l-4.61-1.97a5 5 0 0 1-7.94 1.3l-5.27 3.76a5 5 0 1 1-4.24-2.35zm-3 5a3 3 0 1 0 6 0 3 3 0 0 0-6 0zm13-10a3 3 0 1 0 6 0 3 3 0 0 0-6 0zm14 5a3 3 0 1 0 6 0 3 3 0 0 0-6 0zm14-10a3 3 0 1 0 6 0 3 3 0 0 0-6 0z"/></defs><g><g transform="translate(-1286 -6241)"><use fill="#93b3c4" xlink:href="#1wkpa"/></g></g></svg>